<?xml version="1.0" encoding="utf-8"?>
<!-- Generator: Adobe Illustrator 17.0.0, SVG Export Plug-In . SVG Version: 6.00 Build 0)  -->
<!DOCTYPE svg PUBLIC "-//W3C//DTD SVG 1.1//EN" "http://www.w3.org/Graphics/SVG/1.1/DTD/svg11.dtd">
<svg version="1.1" id="Layer_1" xmlns="http://www.w3.org/2000/svg" xmlns:xlink="http://www.w3.org/1999/xlink" x="0px" y="0px"
	 width="411.111px" height="439.138px" viewBox="0 0 411.111 439.138" enable-background="new 0 0 411.111 439.138"
	 xml:space="preserve">
<path fill-rule="evenodd" clip-rule="evenodd" d="M401.809,262.497c1.838-5.752,2.404-12.045,1.638-18.198
	c-0.766-6.149-2.823-11.705-5.95-16.068c-3.076-4.294-7.017-7.232-11.711-8.733l-3.015-0.963l-0.312-3.145
	c-1.382-13.906-7.211-26.986-16.857-37.826c-9.742-10.947-22.638-18.837-37.296-22.817l-2.848-0.772l-0.602-2.897
	c-4.579-21.987-16.547-41.923-33.696-56.134c-17.01-14.094-38.441-21.856-60.345-21.856c-22.335,0-44.094,8.037-61.27,22.631
	c-17.309,14.708-29.114,35.216-33.24,57.747l-0.553,3.012l-2.957,0.776c-15.506,4.071-29.41,12.885-39.15,24.817
	C83.9,194.009,78.75,208.236,78.75,223.215c0,10.9,2.695,21.318,8.01,30.965c5.07,9.2,12.454,17.35,21.39,23.619h283.602
	C396.308,274.127,399.775,268.859,401.809,262.497z"/>
<path fill-rule="evenodd" clip-rule="evenodd" d="M67.849,120.111c0,10.636,2.823,20.602,7.757,29.189
	c4.898,8.524,11.887,15.705,20.269,20.848c4.704-4.369,9.989-8.206,15.737-11.402c5.733-3.188,11.923-5.738,18.455-7.543
	c2.672-13.788,7.969-26.606,15.333-37.882v-0.007c7.38-11.299,16.845-21.055,27.83-28.691c-5.282-6.943-12.078-12.674-19.896-16.7
	c-8.033-4.138-17.152-6.474-26.825-6.474c-16.199,0-30.865,6.566-41.48,17.181C74.416,89.246,67.849,103.912,67.849,120.111"/>
<path fill-rule="evenodd" clip-rule="evenodd" d="M170.719,61.468l13.628,13.385l27.212-28.075c3.597-3.71,3.522-9.708-0.164-13.329
	c-3.809-3.741-9.966-3.666-13.682,0.168L170.719,61.468z"/>
<path fill-rule="evenodd" clip-rule="evenodd" d="M146.7,49.5l5.513-38.707c0.729-5.116-2.857-9.925-7.967-10.687
	c-5.281-0.788-10.217,2.892-10.97,8.179l-5.468,38.398L146.7,49.5z"/>
<path fill-rule="evenodd" clip-rule="evenodd" d="M102.312,48.353L84.02,13.798c-2.418-4.567-8.145-6.35-12.727-3.963
	c-4.736,2.467-6.566,8.345-4.068,13.065l18.145,34.278L102.312,48.353z"/>
<path fill-rule="evenodd" clip-rule="evenodd" d="M61.625,74.596L26.983,56.469c-4.579-2.395-10.309-0.623-12.734,3.939
	c-2.507,4.714-0.687,10.596,4.044,13.072l34.365,17.982L61.625,74.596z"/>
<path fill-rule="evenodd" clip-rule="evenodd" d="M48.129,120.422l-39.065,1.623c-5.163,0.214-9.239,4.614-9.058,9.779
	c0.186,5.336,4.703,9.52,10.038,9.299l38.752-1.609L48.129,120.422z"/>
<path fill-rule="evenodd" clip-rule="evenodd" d="M60.304,165.37l-27.212,28.075c-3.597,3.71-3.522,9.708,0.164,13.329
	c3.809,3.741,9.966,3.666,13.682-0.168l26.994-27.851L60.304,165.37z"/>
<path fill-rule="evenodd" clip-rule="evenodd" d="M62.393,399.261L62.393,399.261L62.393,399.261L62.393,399.261L62.393,399.261z
	 M102.371,404.198l0.007-0.003c8.309,0.292,16.618,0.287,24.928,0l0.024,0.01c-4.341-10.943-8.612-21.853-12.497-32.682
	C112.285,378.859,107.455,391.303,102.371,404.198z M254.897,362.736c0.216-0.005,0.435,0,0.652,0
	c15.2,0,26.364,10.353,26.364,31.987c0,21.607-11.149,31.958-26.335,31.958c-16.569,0-26.305-11.873-26.305-31.9
	C229.273,372.132,241.269,363.015,254.897,362.736z M255.505,358.474c-24.857,0-37.897,15.76-37.897,36.191
	c0,22.362,14.237,36.001,37.86,36.001c25.541,0,38.015-15.371,38.015-35.766C293.482,372.159,278.586,358.474,255.505,358.474z
	 M341.346,358.613c18.589,0,32.28,11.293,32.28,36.199c0,27.074-16.562,35.854-32.251,35.854c-16.762,0-32.032-9.837-32.032-36.389
	C309.344,366.756,326.269,358.613,341.346,358.613z M341.317,354.241c-24.754,0-43.675,14.056-43.675,40.189
	c0,21.532,12.586,40.482,43.88,40.482c26.494,0,43.792-14.566,43.792-40.101C385.314,370.731,369.178,354.241,341.317,354.241z
	 M387.226,433.747c0-3.024,1.839-5.836,5.525-5.836c3.528,0,6.168,2.111,6.168,5.481c0,4.199-2.779,5.747-5.325,5.747
	C390.073,439.138,387.226,437.312,387.226,433.747z M57.42,380.983 M38.959,350.049L38.959,350.049l0.29,0.511v0 M34.857,352.727
	L34.857,352.727 M80.671,429.734l0.082-0.036l-0.078,0.026c4.484-1.119,8.766-0.776,11.594-0.01l-0.029-0.014l0.025,0.009
	c2.493-6.299,5.332-13.435,8.171-20.614l0.014,0.009c9.607-0.274,19.215-0.311,28.823,0l0.002-0.001
	c2.731,6.87,5.471,13.75,8.143,20.629l-0.001,0.002c4.281-1.118,8.542-0.814,11.689-0.02l-0.01-0.004
	c-7.046-13.155-21.185-47.572-30.17-70.311l-0.008,0.003l0.009-0.005c-2.917,1.019-5.294,0.962-8.158,0.004l-0.013-0.008
	c-9.436,23.678-20.308,50.403-30.084,70.333h0L80.671,429.734z M214.226,429.725c-3.805-0.917-7.701-0.957-11.702,0l0.023-0.013
	l-0.038,0.013c0.578-10.913,0.881-21.817,0.918-32.713c-13.101-0.176-26.202-0.168-39.303,0.015l-0.007-0.004
	c0.037,10.892,0.34,21.792,0.918,32.702l-0.037-0.013l0.023,0.013c-4.001-0.957-7.897-0.917-11.703,0
	c0.932-23.397,1.021-46.828,0-70.303c3.976,0.952,7.88,0.926,11.717,0c-0.568,10.928-0.876,21.866-0.917,32.813l0.006-0.003
	c13.086,0.33,26.188,0.305,39.302,0c-0.041-10.946-0.349-21.883-0.917-32.81c3.838,0.926,7.742,0.952,11.717,0
	C213.206,382.898,213.294,406.328,214.226,429.725z M405.928,351.132c0.086,0.009,0.171,0.02,0.255,0.032l-0.75,4.97l-0.154,0.965
	l0.154-0.964l0.751-4.971c2.714,0.385,4.786,2.443,4.786,4.924c0,2.755-2.556,4.988-5.71,4.988c-0.133,0-0.265-0.003-0.395-0.011
	c0.13,0.008,0.261,0.012,0.394,0.012c3.154,0,5.711-2.234,5.711-4.989c0-2.48-2.073-4.538-4.787-4.924
	C406.099,351.151,406.014,351.14,405.928,351.132z M400.942,352.822c0.179-0.181,0.373-0.35,0.58-0.507
	C401.315,352.471,401.121,352.641,400.942,352.822z M404.647,361.046c-2.865-0.267-5.097-2.386-5.097-4.96
	c0-1.248,0.525-2.389,1.391-3.264c-0.867,0.875-1.392,2.016-1.392,3.265c0,2.574,2.232,4.694,5.098,4.961L404.647,361.046z
	 M393.134,419.417l-0.022,0.005l0-0.001l-0.012,0.002l0.013-0.012c2.856-20.191,4.594-41.412,6.262-62.57
	c0-4.218,2.788-5.868,5.601-5.868c0.492,0,1.22,0.103,1.22,0.103l-0.001,0.005l0.005-0.006c2.944,0.492,4.91,2.294,4.91,5.397
	c0,1.027-0.423,2.473-0.706,3.695c-1.973,8.694-9.675,39.412-12.918,59.919l0.007,0.011
	C396.194,419.573,394.857,419.122,393.134,419.417z M38.959,350.049l23.434,39.135 M39.106,350.074L39.106,350.074z M85.986,350.074
	L85.986,350.074z M97.802,350.074L97.802,350.074z M97.802,350.074l-4.81,7.424l-6.727,11.223L80.2,379.038l-8.783,15.266
	l-3.939,6.866l0.697,37.713c-4.183-0.732-7.006-0.697-11.258,0l0.732-37.713c-5.228-9.062-20.634-36.598-30.219-51.062l-0.035-0.035
	c4.845,1.115,6.866,1.046,11.711,0l4.113,7.11l0.697,1.15l2.858,4.81l2.998,5.019l3.904,6.413l2.719,4.496l6.169,10.143l6.065-9.969
	l3.032-4.984l4.705-7.807l6.901-11.572l2.719-4.81C89.785,351.085,93.584,351.05,97.802,350.074L97.802,350.074z"/>
</svg>
